<?xml version="1.0" standalone="no"?><!DOCTYPE svg PUBLIC "-//W3C//DTD SVG 1.1//EN" "http://www.w3.org/Graphics/SVG/1.1/DTD/svg11.dtd"><svg t="1679454645507" class="icon" viewBox="0 0 1024 1024" version="1.1" xmlns="http://www.w3.org/2000/svg" p-id="2498" width="200" height="200" xmlns:xlink="http://www.w3.org/1999/xlink"><path d="M317.397333 384.426667A127.744 127.744 0 0 0 189.824 512a127.701333 127.701333 0 0 0 127.573333 127.573333 127.744 127.744 0 0 0 127.573334-127.573333 127.701333 127.701333 0 0 0-127.573334-127.573333m0 227.968c-55.338667 0-100.437333-45.056-100.437333-100.394667s45.098667-100.394667 100.437333-100.394667S417.792 456.661333 417.792 512s-45.056 100.394667-100.394667 100.394667m276.138667-227.968a127.744 127.744 0 0 0-127.573333 127.573333 127.701333 127.701333 0 0 0 127.573333 127.573333 127.744 127.744 0 0 0 127.573333-127.573333 127.744 127.744 0 0 0-127.573333-127.573333m0 227.968c-55.381333 0-100.394667-45.056-100.394667-100.394667s45.013333-100.394667 100.394667-100.394667c55.338667 0 100.394667 45.056 100.394667 100.394667s-45.056 100.394667-100.394667 100.394667m-495.445333-151.466667a89.6 89.6 0 0 0-68.096 18.048V411.349333H144.64c3.968 0 6.826667-0.725333 6.826667-12.458666 0-11.477333-4.608-11.946667-7.68-11.946667H16.896c-7.424 0-11.306667 5.973333-11.306667 12.544v111.018667c0 5.802667 3.712 7.808 10.538667 9.130666 6.016 1.194667 9.514667 0.512 12.16-2.432l0.256-0.426666c12.074667-17.408 38.4-34.304 63.402667-31.232 29.824 3.669333 53.845333 27.477333 57.173333 56.618666a64.512 64.512 0 0 1-64.042667 71.893334c-27.093333 0-50.773333-17.408-60.629333-42.709334-1.493333-3.754667-3.925333-6.485333-14.634667-2.645333-9.770667 3.541333-10.368 7.722667-9.045333 11.434667a90.026667 90.026667 0 0 0 84.309333 59.136 89.685333 89.685333 0 0 0 13.013334-178.346667m710.229333-75.264c-34.346667 2.645333-61.184 32.810667-61.184 68.693333v113.536c0 6.570667 4.992 7.936 12.501333 7.936s12.501333-1.322667 12.501334-7.936v-113.834666c0-22.357333 16.298667-41.557333 37.034666-43.690667a41.472 41.472 0 0 1 32.341334 10.538667 41.984 41.984 0 0 1 13.738666 31.104c0 3.413333-1.664 14.506667-9.258666 24.789333-5.76 7.765333-16.682667 17.024-36.010667 17.024h-0.384c-4.906667 0-9.173333 0.213333-9.984 11.946667-0.554667 7.936-0.512 11.477333 6.314667 12.373333 12.202667 1.706667 24.576-0.682667 36.906666-7.082667 20.992-10.922667 35.072-31.616 36.736-54.058666a66.645333 66.645333 0 0 0-19.285333-52.138667 66.56 66.56 0 0 0-51.968-19.2m167.210667 66.517333l46.293333-46.293333c1.706667-1.664 5.632-5.632-2.346667-13.824-3.413333-3.541333-6.528-5.333333-9.258666-5.333333h-0.042667a6.954667 6.954667 0 0 0-5.162667 2.474666l-46.421333 46.421334-46.336-46.634667c-3.754667-3.754667-8.106667-2.858667-13.738667 2.773333-5.76 5.802667-6.698667 10.24-2.944 13.994667l46.336 46.592-45.397333 45.397333-0.298667 0.298667c-1.109333 1.066667-2.773333 2.688-2.773333 5.333333-0.042667 2.688 1.792 5.930667 5.376 9.514667 2.986667 3.029333 5.888 4.565333 8.533333 4.565333 2.944 0 4.864-1.92 5.930667-2.986666l45.568-45.525334 46.549333 46.592a6.912 6.912 0 0 0 4.864 1.92h0.085334c2.944 0 6.058667-1.706667 9.258666-5.034666 5.205333-5.504 6.101333-10.069333 2.602667-13.610667l-46.677333-46.634667z" p-id="2499" fill="#cdcdcd"></path></svg>